<svg xmlns="http://www.w3.org/2000/svg" viewBox="0 0 682 216"><defs><style>.cls-1{fill:#72baff;stroke:#2269ff;}.cls-1,.cls-3{stroke-miterlimit:10;}.cls-2,.cls-3{fill:#164589;}.cls-3{stroke:#164589;}.cls-4{isolation:isolate;}.cls-5{fill:#2466b5;}</style></defs><title>Asset 2</title><g id="Layer_2" data-name="Layer 2"><g id="Layer_1-2" data-name="Layer 1"><rect class="cls-1" x="5.5" y="5.5" width="671" height="205" rx="15.24" ry="15.24"/><path class="cls-2" d="M661.26,11A9.75,9.75,0,0,1,671,20.74V195.26a9.75,9.75,0,0,1-9.74,9.74H20.74A9.75,9.75,0,0,1,11,195.26V20.74A9.75,9.75,0,0,1,20.74,11H661.26m0-11H20.74A20.8,20.8,0,0,0,0,20.74V195.26A20.8,20.8,0,0,0,20.74,216H661.26A20.8,20.8,0,0,0,682,195.26V20.74A20.8,20.8,0,0,0,661.26,0Z"/><path class="cls-3" d="M169.28,42.72a2.46,2.46,0,0,0-1.74-.72H107a2.46,2.46,0,0,0-2.46,2.46v7L81.21,57.71a2.46,2.46,0,0,0-1.74,3l12.09,45.12L81.1,116.29A7.38,7.38,0,0,0,75,113.07H51.39A7.39,7.39,0,0,0,44,120.45v40.11a7.39,7.39,0,0,0,7.38,7.38H75a7.39,7.39,0,0,0,7.17-5.61l2.93,2.55a12.4,12.4,0,0,0,8.15,3h74.29a2.46,2.46,0,0,0,2.46-2.46v-121A2.46,2.46,0,0,0,169.28,42.72ZM77.47,160.62A2.46,2.46,0,0,1,75,163.08H51.39a2.46,2.46,0,0,1-2.46-2.46V120.51a2.46,2.46,0,0,1,2.46-2.46h9.35V146.4a2.46,2.46,0,1,0,4.92,0h0V118H75a2.46,2.46,0,0,1,2.46,2.46v40.16Zm7.39-98.75,19.68-5.27v9.12l-1.65.44a2.46,2.46,0,0,0-1.74,3,6.63,6.63,0,0,1-4.69,8.12h0a2.46,2.46,0,0,0-1.74,3l9.59,35.52H99.37l-2.55-10a2.46,2.46,0,0,0-.41-.86ZM104.54,77V97.77l-4.49-16.62A11.53,11.53,0,0,0,104.54,77Zm35.35,86.08H93.25a7.48,7.48,0,0,1-4.92-1.84l-5.94-5.18V122l10.74-10.74,2,7.62a2.46,2.46,0,0,0,2.38,1.85h48.38a3.45,3.45,0,0,1,0,6.89H121.06a2.46,2.46,0,0,0,0,4.92h32.49a3.45,3.45,0,1,1,.37,6.89H121.06a2.46,2.46,0,0,0,0,4.92h27.23a3.45,3.45,0,0,1,0,6.89H121.06a2.46,2.46,0,0,0,0,4.92H139.9a3.45,3.45,0,0,1,0,6.89Zm25.18,0H147.52a8.34,8.34,0,0,0,0-6.89h.77a8.36,8.36,0,0,0,7.48-12.11,8.36,8.36,0,0,0,4.5-13V99.83a2.46,2.46,0,0,0-4.92,0v28a8.37,8.37,0,0,0-1.79-.2h-.08a8.36,8.36,0,0,0-7.62-11.81h-4a11.78,11.78,0,1,0-9.25,0H119.19V69A11.58,11.58,0,0,0,128,60.18h18.51A11.58,11.58,0,0,0,155.34,69v7.65a2.46,2.46,0,0,0,4.92,0V66.8a2.46,2.46,0,0,0-2.46-2.46,6.63,6.63,0,0,1-6.63-6.63h0a2.46,2.46,0,0,0-2.46-2.46H125.82a2.46,2.46,0,0,0-2.46,2.46,6.63,6.63,0,0,1-6.63,6.63h0a2.46,2.46,0,0,0-2.46,2.46v49h-4.81V46.9h55.62Zm-27.81-51.22a6.86,6.86,0,1,1,6.86-6.86h0a6.86,6.86,0,0,1-6.85,6.86Z"/><path class="cls-2" d="M311.68,38.57H339q8.09,0,13.07,2.2a21.26,21.26,0,0,1,8.23,6.3,26.09,26.09,0,0,1,4.72,9.55,44.35,44.35,0,0,1,1.46,11.55q0,9.56-2.18,14.82a24.53,24.53,0,0,1-6,8.82A19.71,19.71,0,0,1,350,96.55a42.74,42.74,0,0,1-11,1.63H311.68Zm18.42,13.5V84.64h4.51q5.77,0,8.21-1.28a8.68,8.68,0,0,0,3.82-4.47Q348,75.7,348,68.54q0-9.47-3.09-13t-10.25-3.5Z"/><path class="cls-2" d="M373.08,76.71a21.6,21.6,0,0,1,6.67-16.28q6.67-6.4,18-6.4,13,0,19.6,7.52a21.79,21.79,0,0,1,5.33,14.92q0,10-6.61,16.32T397.8,99.16q-10.41,0-16.83-5.29A21.22,21.22,0,0,1,373.08,76.71Zm16.59,0q0,5.77,2.34,8.54a7.66,7.66,0,0,0,11.75,0q2.3-2.72,2.3-8.74,0-5.61-2.32-8.36A7.22,7.22,0,0,0,398,65.41a7.49,7.49,0,0,0-6,2.79Q389.67,71,389.67,76.67Z"/><path class="cls-2" d="M445.74,69l-15.82-1.67a17.74,17.74,0,0,1,2.58-6.53,14.22,14.22,0,0,1,4.86-4.13,20.34,20.34,0,0,1,6.26-2,50.57,50.57,0,0,1,8.62-.69,68.49,68.49,0,0,1,12,.83,15.37,15.37,0,0,1,7.52,3.48,12.2,12.2,0,0,1,3.33,5.18,18.75,18.75,0,0,1,1.22,6.4V89a23,23,0,0,0,.39,4.78,21.47,21.47,0,0,0,1.69,4.41H462.81a15.67,15.67,0,0,1-1.22-2.54,18.73,18.73,0,0,1-.57-2.75,21.43,21.43,0,0,1-6.46,4.47,26.92,26.92,0,0,1-10.21,1.79q-7.73,0-11.73-3.58a11.36,11.36,0,0,1-4-8.82,11.56,11.56,0,0,1,2.89-8.09q2.89-3.17,10.65-4.72,9.31-1.87,12.08-2.62a56.32,56.32,0,0,0,5.85-2q0-3-1.26-4.27t-4.43-1.22a11.46,11.46,0,0,0-6.1,1.3A7.13,7.13,0,0,0,445.74,69Zm14.35,8.7q-3.41,1.22-7.12,2.16-5,1.34-6.38,2.64a4.23,4.23,0,0,0,0,6.24,5.76,5.76,0,0,0,4,1.24,10.29,10.29,0,0,0,5.14-1.34,8.12,8.12,0,0,0,3.38-3.27,11,11,0,0,0,1-5Z"/><path class="cls-2" d="M486.35,55h15.49v7.07q2.24-4.59,4.62-6.32A9.73,9.73,0,0,1,512.34,54a17.48,17.48,0,0,1,8,2.28l-5.12,11.79a13,13,0,0,0-4.63-1.22,5.72,5.72,0,0,0-5,2.68Q503,73.34,503,83.71V98.18H486.35Z"/><g class="cls-4"><path class="cls-5" d="M241.85,166.56V124.13h21.85a31.75,31.75,0,0,1,9.29,1,9.89,9.89,0,0,1,5.18,3.86,12,12,0,0,1-3.68,17.12,15.83,15.83,0,0,1-4.6,1.68,13.07,13.07,0,0,1,3.41,1.56,13.2,13.2,0,0,1,2.1,2.23,16.71,16.71,0,0,1,1.84,2.64l6.35,12.29H268.77l-7-13a9.89,9.89,0,0,0-2.37-3.27,5.5,5.5,0,0,0-3.21-1H255v17.22ZM255,141.32h5.53a19.76,19.76,0,0,0,3.47-.58,3.46,3.46,0,0,0,2.13-1.33,4.3,4.3,0,0,0-.48-5.61q-1.3-1.1-4.89-1.1H255Z"/><path class="cls-5" d="M319.65,154.12H296a7.62,7.62,0,0,0,1.53,4.23,5.58,5.58,0,0,0,4.46,2,6.69,6.69,0,0,0,3.3-.87,7.76,7.76,0,0,0,2.05-1.94L319,158.6a16.62,16.62,0,0,1-6.42,6.64q-3.76,2-10.79,2-6.11,0-9.61-1.72a14.1,14.1,0,0,1-5.8-5.47,16.5,16.5,0,0,1-2.3-8.81,15.48,15.48,0,0,1,4.62-11.66q4.62-4.46,12.75-4.46,6.6,0,10.42,2a13.48,13.48,0,0,1,5.82,5.79,21.16,21.16,0,0,1,2,9.87Zm-12-5.64a7.87,7.87,0,0,0-1.84-4.89,5.77,5.77,0,0,0-8.41.75,8.17,8.17,0,0,0-1.36,4.14Z"/><path class="cls-5" d="M348,154.52l11.2,1.27a15.71,15.71,0,0,1-3,6.06,14.12,14.12,0,0,1-5.4,4,21.2,21.2,0,0,1-8.35,1.42,30.82,30.82,0,0,1-8.15-.91,14.24,14.24,0,0,1-5.6-2.95,14.88,14.88,0,0,1-3.68-4.79,16.84,16.84,0,0,1-1.33-7.29,17.17,17.17,0,0,1,1.62-7.89,14.3,14.3,0,0,1,3.24-4.15,15,15,0,0,1,4.23-2.73,23.43,23.43,0,0,1,8.83-1.42q7.52,0,11.47,2.69a14.2,14.2,0,0,1,5.54,7.87l-11.08,1.48a5.14,5.14,0,0,0-1.9-3,6.15,6.15,0,0,0-3.69-1,6,6,0,0,0-4.73,2.09q-1.81,2.09-1.81,6.34a8.25,8.25,0,0,0,1.79,5.75,5.92,5.92,0,0,0,4.57,2,6.29,6.29,0,0,0,3.89-1.19A7.08,7.08,0,0,0,348,154.52Z"/><path class="cls-5" d="M363.14,151.28a15.37,15.37,0,0,1,4.75-11.59q4.75-4.56,12.82-4.56,9.23,0,13.95,5.35a16.74,16.74,0,0,1-.91,22.24q-4.7,4.53-13,4.53-7.41,0-12-3.76A15.1,15.1,0,0,1,363.14,151.28Zm11.81,0q0,4.11,1.66,6.08a5.45,5.45,0,0,0,8.36,0q1.63-1.94,1.64-6.22,0-4-1.65-5.95a5.13,5.13,0,0,0-4.08-2,5.33,5.33,0,0,0-4.25,2Q375,147.2,375,151.25Z"/><path class="cls-5" d="M404.24,135.83h11v5a12,12,0,0,1,3.29-4.5,6.92,6.92,0,0,1,4.18-1.23,12.44,12.44,0,0,1,5.7,1.62l-3.65,8.39a9.25,9.25,0,0,0-3.3-.87,4.07,4.07,0,0,0-3.59,1.91q-1.82,2.69-1.82,10.07v10.3H404.24Z"/><path class="cls-5" d="M433,135.83h11v5a12,12,0,0,1,3.28-4.5,6.92,6.92,0,0,1,4.18-1.23,12.45,12.45,0,0,1,5.7,1.62l-3.65,8.39a9.26,9.26,0,0,0-3.3-.87,4.07,4.07,0,0,0-3.59,1.91q-1.82,2.69-1.82,10.07v10.3H433Z"/><path class="cls-5" d="M494.3,154.12H470.69a7.63,7.63,0,0,0,1.53,4.23,5.58,5.58,0,0,0,4.46,2,6.69,6.69,0,0,0,3.3-.87,7.76,7.76,0,0,0,2.05-1.94l11.61,1.07a16.62,16.62,0,0,1-6.42,6.64q-3.76,2-10.79,2-6.11,0-9.61-1.72a14.11,14.11,0,0,1-5.8-5.47,16.51,16.51,0,0,1-2.3-8.81,15.48,15.48,0,0,1,4.62-11.66q4.62-4.46,12.75-4.46,6.6,0,10.42,2a13.49,13.49,0,0,1,5.82,5.79,21.16,21.16,0,0,1,2,9.87Zm-12-5.64a7.88,7.88,0,0,0-1.84-4.89,5.77,5.77,0,0,0-8.41.75,8.16,8.16,0,0,0-1.36,4.14Z"/><path class="cls-5" d="M499.71,135.83h11v5a16.34,16.34,0,0,1,5-4.38,13.11,13.11,0,0,1,6.14-1.32,10.05,10.05,0,0,1,7.65,2.91q2.76,2.91,2.76,9v19.54H520.38v-16.9a6.15,6.15,0,0,0-1.07-4.09,3.82,3.82,0,0,0-3-1.2,4.28,4.28,0,0,0-3.47,1.62q-1.33,1.62-1.33,5.82v14.76H499.71Z"/><path class="cls-5" d="M553.46,124.13v11.69h6.48v8.62h-6.48v10.89a5.86,5.86,0,0,0,.38,2.6,2.16,2.16,0,0,0,2,1,12.92,12.92,0,0,0,3.65-.75l.87,8.13a38.35,38.35,0,0,1-8.16,1,14.2,14.2,0,0,1-6.48-1.13,6.88,6.88,0,0,1-3.08-3.42q-1-2.3-1-7.44V144.45h-4.34v-8.62h4.34v-5.64Z"/><path class="cls-5" d="M599.67,154.12H576.06a7.63,7.63,0,0,0,1.53,4.23,5.58,5.58,0,0,0,4.46,2,6.69,6.69,0,0,0,3.3-.87,7.76,7.76,0,0,0,2.05-1.94L599,158.6a16.62,16.62,0,0,1-6.42,6.64q-3.76,2-10.79,2-6.11,0-9.61-1.72a14.11,14.11,0,0,1-5.8-5.47,16.51,16.51,0,0,1-2.3-8.81,15.48,15.48,0,0,1,4.62-11.66q4.62-4.46,12.75-4.46,6.6,0,10.42,2a13.49,13.49,0,0,1,5.82,5.79,21.16,21.16,0,0,1,2,9.87Zm-12-5.64a7.88,7.88,0,0,0-1.84-4.89,5.77,5.77,0,0,0-8.41.75,8.16,8.16,0,0,0-1.36,4.14Z"/></g></g></g></svg>