<svg xmlns="http://www.w3.org/2000/svg" viewBox="0 0 682 216"><defs><style>.cls-1{fill:#72baff;stroke:#2269ff;}.cls-1,.cls-3{stroke-miterlimit:10;}.cls-2,.cls-3{fill:#164589;}.cls-3{stroke:#164589;}.cls-4{isolation:isolate;}.cls-5{fill:#2466b5;}</style></defs><title>Asset 1</title><g id="Layer_2" data-name="Layer 2"><g id="Layer_1-2" data-name="Layer 1"><rect class="cls-1" x="5.5" y="5.5" width="671" height="205" rx="15.24" ry="15.24"/><path class="cls-2" d="M661.26,11A9.75,9.75,0,0,1,671,20.74V195.26a9.75,9.75,0,0,1-9.74,9.74H20.74A9.75,9.75,0,0,1,11,195.26V20.74A9.75,9.75,0,0,1,20.74,11H661.26m0-11H20.74A20.8,20.8,0,0,0,0,20.74V195.26A20.8,20.8,0,0,0,20.74,216H661.26A20.8,20.8,0,0,0,682,195.26V20.74A20.8,20.8,0,0,0,661.26,0Z"/><path class="cls-3" d="M169.28,42.72a2.46,2.46,0,0,0-1.74-.72H107a2.46,2.46,0,0,0-2.46,2.46v7L81.21,57.71a2.46,2.46,0,0,0-1.74,3l12.09,45.12L81.1,116.29A7.38,7.38,0,0,0,75,113.07H51.39A7.39,7.39,0,0,0,44,120.45v40.11a7.39,7.39,0,0,0,7.38,7.38H75a7.39,7.39,0,0,0,7.17-5.61l2.93,2.55a12.4,12.4,0,0,0,8.15,3h74.29a2.46,2.46,0,0,0,2.46-2.46v-121A2.46,2.46,0,0,0,169.28,42.72ZM77.47,160.62A2.46,2.46,0,0,1,75,163.08H51.39a2.46,2.46,0,0,1-2.46-2.46V120.51a2.46,2.46,0,0,1,2.46-2.46h9.35V146.4a2.46,2.46,0,1,0,4.92,0h0V118H75a2.46,2.46,0,0,1,2.46,2.46v40.16Zm7.39-98.75,19.68-5.27v9.12l-1.65.44a2.46,2.46,0,0,0-1.74,3,6.63,6.63,0,0,1-4.69,8.12h0a2.46,2.46,0,0,0-1.74,3l9.59,35.52H99.37l-2.55-10a2.46,2.46,0,0,0-.41-.86ZM104.54,77V97.77l-4.49-16.62A11.53,11.53,0,0,0,104.54,77Zm35.35,86.08H93.25a7.48,7.48,0,0,1-4.92-1.84l-5.94-5.18V122l10.74-10.74,2,7.62a2.46,2.46,0,0,0,2.38,1.85h48.38a3.45,3.45,0,0,1,0,6.89H121.06a2.46,2.46,0,0,0,0,4.92h32.49a3.45,3.45,0,1,1,.37,6.89H121.06a2.46,2.46,0,0,0,0,4.92h27.23a3.45,3.45,0,0,1,0,6.89H121.06a2.46,2.46,0,0,0,0,4.92H139.9a3.45,3.45,0,0,1,0,6.89Zm25.18,0H147.52a8.34,8.34,0,0,0,0-6.89h.77a8.36,8.36,0,0,0,7.48-12.11,8.36,8.36,0,0,0,4.5-13V99.83a2.46,2.46,0,0,0-4.92,0v28a8.37,8.37,0,0,0-1.79-.2h-.08a8.36,8.36,0,0,0-7.62-11.81h-4a11.78,11.78,0,1,0-9.25,0H119.19V69A11.58,11.58,0,0,0,128,60.18h18.51A11.58,11.58,0,0,0,155.34,69v7.65a2.46,2.46,0,0,0,4.92,0V66.8a2.46,2.46,0,0,0-2.46-2.46,6.63,6.63,0,0,1-6.63-6.63h0a2.46,2.46,0,0,0-2.46-2.46H125.82a2.46,2.46,0,0,0-2.46,2.46,6.63,6.63,0,0,1-6.63,6.63h0a2.46,2.46,0,0,0-2.46,2.46v49h-4.81V46.9h55.62Zm-27.81-51.22a6.86,6.86,0,1,1,6.86-6.86h0a6.86,6.86,0,0,1-6.85,6.86Z"/><path class="cls-2" d="M311.68,38.57H339q8.09,0,13.07,2.2a21.26,21.26,0,0,1,8.23,6.3,26.1,26.1,0,0,1,4.72,9.55,44.35,44.35,0,0,1,1.46,11.55q0,9.56-2.18,14.82a24.53,24.53,0,0,1-6,8.82A19.7,19.7,0,0,1,350,96.55a42.74,42.74,0,0,1-11,1.63H311.68Zm18.42,13.5V84.64h4.51q5.77,0,8.21-1.28a8.68,8.68,0,0,0,3.82-4.47Q348,75.7,348,68.54q0-9.47-3.09-13t-10.25-3.5Z"/><path class="cls-2" d="M373.08,76.71a21.6,21.6,0,0,1,6.67-16.28q6.67-6.4,18-6.4,13,0,19.6,7.52a21.79,21.79,0,0,1,5.33,14.92q0,10-6.61,16.32T397.8,99.16q-10.41,0-16.83-5.29A21.22,21.22,0,0,1,373.08,76.71Zm16.59,0q0,5.77,2.34,8.54a7.66,7.66,0,0,0,11.75,0q2.3-2.72,2.3-8.74,0-5.61-2.32-8.36A7.22,7.22,0,0,0,398,65.41a7.49,7.49,0,0,0-6,2.79Q389.67,71,389.67,76.67Z"/><path class="cls-2" d="M445.74,69l-15.82-1.67a17.74,17.74,0,0,1,2.58-6.53,14.22,14.22,0,0,1,4.86-4.13,20.34,20.34,0,0,1,6.26-2,50.57,50.57,0,0,1,8.62-.69,68.49,68.49,0,0,1,12,.83,15.37,15.37,0,0,1,7.52,3.48,12.2,12.2,0,0,1,3.33,5.18,18.75,18.75,0,0,1,1.22,6.4V89a23,23,0,0,0,.39,4.78,21.47,21.47,0,0,0,1.69,4.41H462.81a15.67,15.67,0,0,1-1.22-2.54,18.73,18.73,0,0,1-.57-2.75,21.43,21.43,0,0,1-6.46,4.47,26.92,26.92,0,0,1-10.21,1.79q-7.73,0-11.73-3.58a11.36,11.36,0,0,1-4-8.82,11.56,11.56,0,0,1,2.89-8.09q2.89-3.17,10.65-4.72,9.31-1.87,12.08-2.62a56.32,56.32,0,0,0,5.85-2q0-3-1.26-4.27t-4.43-1.22a11.46,11.46,0,0,0-6.1,1.3A7.13,7.13,0,0,0,445.74,69Zm14.35,8.7q-3.41,1.22-7.12,2.16-5,1.34-6.38,2.64a4.23,4.23,0,0,0,0,6.24,5.76,5.76,0,0,0,4,1.24,10.29,10.29,0,0,0,5.14-1.34,8.12,8.12,0,0,0,3.38-3.27,11,11,0,0,0,1-5Z"/><path class="cls-2" d="M486.35,55h15.49v7.07q2.24-4.59,4.62-6.32A9.73,9.73,0,0,1,512.34,54a17.48,17.48,0,0,1,8,2.28l-5.12,11.79a13,13,0,0,0-4.63-1.22,5.72,5.72,0,0,0-5,2.68Q503,73.34,503,83.71V98.18H486.35Z"/><g class="cls-4"><path class="cls-5" d="M317.08,164.72H296.17l-2.91,9.84H274.46L296.87,115H317l22.4,59.61H320.07Zm-3.82-12.89-6.58-21.43-6.51,21.43Z"/><path class="cls-5" d="M374.16,131.38h15.49v40.78l0,1.91a18,18,0,0,1-1.73,7.75,16.3,16.3,0,0,1-4.59,6,18,18,0,0,1-7.28,3.29,45.29,45.29,0,0,1-10.1,1q-13,0-17.87-3.9a12.72,12.72,0,0,1-4.86-10.45q0-.81.08-2.2l16.06,1.83a5.22,5.22,0,0,0,1.87,3.09,7.92,7.92,0,0,0,4.59,1.26,6.94,6.94,0,0,0,5.35-1.91q1.77-1.91,1.77-6.67v-6.55a16.11,16.11,0,0,1-13.13,6.22q-8.66,0-14-7.56-3.78-5.37-3.78-14.19,0-10.08,4.88-15.37a16.56,16.56,0,0,1,12.77-5.29,17.9,17.9,0,0,1,8.31,1.71,18.12,18.12,0,0,1,6.12,5.65Zm-15.57,20.94q0,4.68,2,6.93a7.07,7.07,0,0,0,10.43-.08q2.09-2.34,2.09-7.05t-2.2-7.22a6.88,6.88,0,0,0-5.37-2.5,6.22,6.22,0,0,0-5.06,2.3Q358.59,147,358.59,152.32Z"/><path class="cls-5" d="M397.62,153.09a21.6,21.6,0,0,1,6.67-16.28q6.67-6.4,18-6.4,13,0,19.6,7.52a21.79,21.79,0,0,1,5.33,14.92q0,10-6.61,16.32t-18.28,6.36q-10.41,0-16.83-5.29A21.22,21.22,0,0,1,397.62,153.09Zm16.59,0q0,5.77,2.34,8.54a7.66,7.66,0,0,0,11.75,0q2.3-2.72,2.3-8.74,0-5.61-2.32-8.36a7.21,7.21,0,0,0-5.73-2.75,7.49,7.49,0,0,0-6,2.79Q414.21,147.36,414.21,153.05Z"/><path class="cls-5" d="M455.35,131.38h15.49v7.07q2.24-4.59,4.62-6.32a9.73,9.73,0,0,1,5.88-1.73,17.48,17.48,0,0,1,8,2.28l-5.12,11.79a13,13,0,0,0-4.63-1.22,5.72,5.72,0,0,0-5,2.68Q472,149.72,472,160.08v14.47H455.35Z"/><path class="cls-5" d="M508.66,145.37l-15.82-1.67a17.74,17.74,0,0,1,2.58-6.53,14.22,14.22,0,0,1,4.86-4.13,20.34,20.34,0,0,1,6.26-2,50.57,50.57,0,0,1,8.62-.69,68.49,68.49,0,0,1,12,.83,15.37,15.37,0,0,1,7.52,3.48A12.2,12.2,0,0,1,538,139.9a18.75,18.75,0,0,1,1.22,6.4v19.07a23,23,0,0,0,.39,4.78,21.47,21.47,0,0,0,1.69,4.41H525.74a15.67,15.67,0,0,1-1.22-2.54,18.73,18.73,0,0,1-.57-2.75,21.43,21.43,0,0,1-6.46,4.47,26.92,26.92,0,0,1-10.21,1.79q-7.73,0-11.73-3.58a11.36,11.36,0,0,1-4-8.82,11.56,11.56,0,0,1,2.89-8.09q2.89-3.17,10.65-4.72,9.31-1.87,12.08-2.62a56.32,56.32,0,0,0,5.85-2q0-3-1.26-4.27t-4.43-1.22a11.46,11.46,0,0,0-6.1,1.3A7.13,7.13,0,0,0,508.66,145.37Zm14.35,8.7q-3.41,1.22-7.12,2.16-5,1.34-6.38,2.64a4.23,4.23,0,0,0,0,6.24,5.76,5.76,0,0,0,4,1.24,10.29,10.29,0,0,0,5.14-1.34,8.12,8.12,0,0,0,3.38-3.27,11,11,0,0,0,1-5Z"/></g></g></g></svg>